<?xml version="1.0" encoding="UTF-8" standalone="no"?>
<!DOCTYPE svg PUBLIC "-//W3C//DTD SVG 1.1//EN"
 "http://www.w3.org/Graphics/SVG/1.1/DTD/svg11.dtd">
<!-- Generated by graphviz version 2.38.0 (20140413.2041)
 -->
<!-- Title: controllers_diagram Pages: 1 -->
<svg width="1684pt" height="1755pt"
 viewBox="0.00 0.00 1684.37 1754.51" xmlns="http://www.w3.org/2000/svg" xmlns:xlink="http://www.w3.org/1999/xlink">
<g id="graph0" class="graph" transform="scale(1 1) rotate(0) translate(692.371 890.799)">
<title>controllers_diagram</title>
<polygon fill="none" stroke="none" points="-692.371,863.709 -692.371,-890.799 992,-890.799 992,863.709 -692.371,863.709"/>
<!-- _diagram_info -->
<g id="node1" class="node"><title>_diagram_info</title>
<text text-anchor="start" x="782" y="280.4" font-family="Times,serif" font-size="13.00">Controllers diagram</text>
<text text-anchor="start" x="782" y="294.4" font-family="Times,serif" font-size="13.00">Date: Dec 10 2017 &#45; 01:30</text>
<text text-anchor="start" x="782" y="308.4" font-family="Times,serif" font-size="13.00">Migration version: 20171209111059</text>
<text text-anchor="start" x="782" y="322.4" font-family="Times,serif" font-size="13.00">Generated by RailRoady 1.5.3</text>
<text text-anchor="start" x="782" y="336.4" font-family="Times,serif" font-size="13.00">http://railroady.prestonlee.com</text>
</g>
<!-- CategoriaController -->
<g id="node2" class="node"><title>CategoriaController</title>
<path fill="none" stroke="black" d="M-628.775,-244.55C-628.775,-244.55 -527.775,-244.55 -527.775,-244.55 -521.775,-244.55 -515.775,-250.55 -515.775,-256.55 -515.775,-256.55 -515.775,-445.55 -515.775,-445.55 -515.775,-451.55 -521.775,-457.55 -527.775,-457.55 -527.775,-457.55 -628.775,-457.55 -628.775,-457.55 -634.775,-457.55 -640.775,-451.55 -640.775,-445.55 -640.775,-445.55 -640.775,-256.55 -640.775,-256.55 -640.775,-250.55 -634.775,-244.55 -628.775,-244.55"/>
<text text-anchor="middle" x="-578.275" y="-442.35" font-family="Times,serif" font-size="14.00">CategoriaController</text>
<polyline fill="none" stroke="black" points="-640.775,-434.55 -515.775,-434.55 "/>
<text text-anchor="start" x="-632.775" y="-419.35" font-family="Times,serif" font-size="14.00">create</text>
<text text-anchor="start" x="-632.775" y="-404.35" font-family="Times,serif" font-size="14.00">destroy</text>
<text text-anchor="start" x="-632.775" y="-389.35" font-family="Times,serif" font-size="14.00">edit</text>
<text text-anchor="start" x="-632.775" y="-374.35" font-family="Times,serif" font-size="14.00">index</text>
<text text-anchor="start" x="-632.775" y="-359.35" font-family="Times,serif" font-size="14.00">new</text>
<text text-anchor="start" x="-632.775" y="-344.35" font-family="Times,serif" font-size="14.00">show</text>
<text text-anchor="start" x="-632.775" y="-329.35" font-family="Times,serif" font-size="14.00">update</text>
<polyline fill="none" stroke="black" points="-640.775,-321.55 -515.775,-321.55 "/>
<polyline fill="none" stroke="black" points="-640.775,-297.55 -515.775,-297.55 "/>
<text text-anchor="start" x="-632.775" y="-282.35" font-family="Times,serif" font-size="14.00">_layout</text>
<text text-anchor="start" x="-632.775" y="-267.35" font-family="Times,serif" font-size="14.00">categorium_params</text>
<text text-anchor="start" x="-632.775" y="-252.35" font-family="Times,serif" font-size="14.00">set_categorium</text>
</g>
<!-- UsersController -->
<g id="node3" class="node"><title>UsersController</title>
<path fill="none" stroke="black" d="M118.021,33.4345C118.021,33.4345 197.021,33.4345 197.021,33.4345 203.021,33.4345 209.021,27.4345 209.021,21.4345 209.021,21.4345 209.021,-62.5655 209.021,-62.5655 209.021,-68.5655 203.021,-74.5655 197.021,-74.5655 197.021,-74.5655 118.021,-74.5655 118.021,-74.5655 112.021,-74.5655 106.021,-68.5655 106.021,-62.5655 106.021,-62.5655 106.021,21.4345 106.021,21.4345 106.021,27.4345 112.021,33.4345 118.021,33.4345"/>
<text text-anchor="middle" x="157.521" y="-59.3655" font-family="Times,serif" font-size="14.00">UsersController</text>
<polyline fill="none" stroke="black" points="106.021,-51.5655 209.021,-51.5655 "/>
<text text-anchor="start" x="114.021" y="-36.3655" font-family="Times,serif" font-size="14.00">index</text>
<text text-anchor="start" x="114.021" y="-21.3655" font-family="Times,serif" font-size="14.00">show</text>
<polyline fill="none" stroke="black" points="106.021,-13.5655 209.021,-13.5655 "/>
<polyline fill="none" stroke="black" points="106.021,10.4345 209.021,10.4345 "/>
<text text-anchor="start" x="114.021" y="25.6345" font-family="Times,serif" font-size="14.00">_layout</text>
</g>
<!-- CommentsController -->
<g id="node4" class="node"><title>CommentsController</title>
<path fill="none" stroke="black" d="M-237.422,344.829C-237.422,344.829 -129.422,344.829 -129.422,344.829 -123.422,344.829 -117.422,338.829 -117.422,332.829 -117.422,332.829 -117.422,173.829 -117.422,173.829 -117.422,167.829 -123.422,161.829 -129.422,161.829 -129.422,161.829 -237.422,161.829 -237.422,161.829 -243.422,161.829 -249.422,167.829 -249.422,173.829 -249.422,173.829 -249.422,332.829 -249.422,332.829 -249.422,338.829 -243.422,344.829 -237.422,344.829"/>
<text text-anchor="middle" x="-183.422" y="177.029" font-family="Times,serif" font-size="14.00">CommentsController</text>
<polyline fill="none" stroke="black" points="-249.422,184.829 -117.422,184.829 "/>
<text text-anchor="start" x="-241.422" y="200.029" font-family="Times,serif" font-size="14.00">comment_params</text>
<text text-anchor="start" x="-241.422" y="215.029" font-family="Times,serif" font-size="14.00">create</text>
<text text-anchor="start" x="-241.422" y="230.029" font-family="Times,serif" font-size="14.00">destroy</text>
<text text-anchor="start" x="-241.422" y="245.029" font-family="Times,serif" font-size="14.00">edit</text>
<text text-anchor="start" x="-241.422" y="260.029" font-family="Times,serif" font-size="14.00">index</text>
<text text-anchor="start" x="-241.422" y="275.029" font-family="Times,serif" font-size="14.00">show</text>
<text text-anchor="start" x="-241.422" y="290.029" font-family="Times,serif" font-size="14.00">update</text>
<polyline fill="none" stroke="black" points="-249.422,297.829 -117.422,297.829 "/>
<polyline fill="none" stroke="black" points="-249.422,321.829 -117.422,321.829 "/>
<text text-anchor="start" x="-241.422" y="337.029" font-family="Times,serif" font-size="14.00">_layout</text>
</g>
<!-- TagsController -->
<g id="node5" class="node"><title>TagsController</title>
<path fill="none" stroke="black" d="M-227.77,-353.442C-227.77,-353.442 -153.77,-353.442 -153.77,-353.442 -147.77,-353.442 -141.77,-359.442 -141.77,-365.442 -141.77,-365.442 -141.77,-479.442 -141.77,-479.442 -141.77,-485.442 -147.77,-491.442 -153.77,-491.442 -153.77,-491.442 -227.77,-491.442 -227.77,-491.442 -233.77,-491.442 -239.77,-485.442 -239.77,-479.442 -239.77,-479.442 -239.77,-365.442 -239.77,-365.442 -239.77,-359.442 -233.77,-353.442 -227.77,-353.442"/>
<text text-anchor="middle" x="-190.77" y="-476.242" font-family="Times,serif" font-size="14.00">TagsController</text>
<polyline fill="none" stroke="black" points="-239.77,-468.442 -141.77,-468.442 "/>
<text text-anchor="start" x="-231.77" y="-453.242" font-family="Times,serif" font-size="14.00">destroy</text>
<text text-anchor="start" x="-231.77" y="-438.242" font-family="Times,serif" font-size="14.00">index</text>
<text text-anchor="start" x="-231.77" y="-423.242" font-family="Times,serif" font-size="14.00">show</text>
<text text-anchor="start" x="-231.77" y="-408.242" font-family="Times,serif" font-size="14.00">update</text>
<polyline fill="none" stroke="black" points="-239.77,-400.442 -141.77,-400.442 "/>
<polyline fill="none" stroke="black" points="-239.77,-376.442 -141.77,-376.442 "/>
<text text-anchor="start" x="-231.77" y="-361.242" font-family="Times,serif" font-size="14.00">_layout</text>
</g>
<!-- ApplicationController -->
<g id="node6" class="node"><title>ApplicationController</title>
<path fill="none" stroke="black" d="M-250.219,-50.9896C-250.219,-50.9896 -80.2192,-50.9896 -80.2192,-50.9896 -74.2192,-50.9896 -68.2192,-56.9896 -68.2192,-62.9896 -68.2192,-62.9896 -68.2192,-131.99 -68.2192,-131.99 -68.2192,-137.99 -74.2192,-143.99 -80.2192,-143.99 -80.2192,-143.99 -250.219,-143.99 -250.219,-143.99 -256.219,-143.99 -262.219,-137.99 -262.219,-131.99 -262.219,-131.99 -262.219,-62.9896 -262.219,-62.9896 -262.219,-56.9896 -256.219,-50.9896 -250.219,-50.9896"/>
<text text-anchor="middle" x="-165.219" y="-128.79" font-family="Times,serif" font-size="14.00">ApplicationController</text>
<polyline fill="none" stroke="black" points="-262.219,-120.99 -68.2192,-120.99 "/>
<polyline fill="none" stroke="black" points="-262.219,-96.9896 -68.2192,-96.9896 "/>
<text text-anchor="start" x="-254.219" y="-81.7896" font-family="Times,serif" font-size="14.00">configure_permitted_parameters</text>
<polyline fill="none" stroke="black" points="-262.219,-73.9896 -68.2192,-73.9896 "/>
<text text-anchor="start" x="-254.219" y="-58.7896" font-family="Times,serif" font-size="14.00">_layout</text>
</g>
<!-- ApplicationController&#45;&gt;CategoriaController -->
<g id="edge1" class="edge"><title>ApplicationController&#45;&gt;CategoriaController</title>
<path fill="none" stroke="black" d="M-240.98,-143.997C-319.817,-192.392 -441.841,-267.298 -515.488,-312.508"/>
</g>
<!-- ApplicationController&#45;&gt;UsersController -->
<g id="edge2" class="edge"><title>ApplicationController&#45;&gt;UsersController</title>
<path fill="none" stroke="black" d="M-67.9488,-74.3055C-10.7833,-60.6803 59.1974,-44.0006 105.888,-32.872"/>
</g>
<!-- ApplicationController&#45;&gt;CommentsController -->
<g id="edge3" class="edge"><title>ApplicationController&#45;&gt;CommentsController</title>
<path fill="none" stroke="black" d="M-167.636,-50.9036C-170.441,3.14835 -175.133,93.5724 -178.674,161.825"/>
</g>
<!-- ApplicationController&#45;&gt;TagsController -->
<g id="edge4" class="edge"><title>ApplicationController&#45;&gt;TagsController</title>
<path fill="none" stroke="black" d="M-168.88,-144.047C-173.185,-198.801 -180.372,-290.202 -185.33,-353.255"/>
</g>
<!-- SobresController -->
<g id="node7" class="node"><title>SobresController</title>
<path fill="none" stroke="black" d="M-555.046,-673.299C-555.046,-673.299 -470.046,-673.299 -470.046,-673.299 -464.046,-673.299 -458.046,-679.299 -458.046,-685.299 -458.046,-685.299 -458.046,-874.299 -458.046,-874.299 -458.046,-880.299 -464.046,-886.299 -470.046,-886.299 -470.046,-886.299 -555.046,-886.299 -555.046,-886.299 -561.046,-886.299 -567.046,-880.299 -567.046,-874.299 -567.046,-874.299 -567.046,-685.299 -567.046,-685.299 -567.046,-679.299 -561.046,-673.299 -555.046,-673.299"/>
<text text-anchor="middle" x="-512.546" y="-871.099" font-family="Times,serif" font-size="14.00">SobresController</text>
<polyline fill="none" stroke="black" points="-567.046,-863.299 -458.046,-863.299 "/>
<text text-anchor="start" x="-559.046" y="-848.099" font-family="Times,serif" font-size="14.00">create</text>
<text text-anchor="start" x="-559.046" y="-833.099" font-family="Times,serif" font-size="14.00">destroy</text>
<text text-anchor="start" x="-559.046" y="-818.099" font-family="Times,serif" font-size="14.00">edit</text>
<text text-anchor="start" x="-559.046" y="-803.099" font-family="Times,serif" font-size="14.00">index</text>
<text text-anchor="start" x="-559.046" y="-788.099" font-family="Times,serif" font-size="14.00">new</text>
<text text-anchor="start" x="-559.046" y="-773.099" font-family="Times,serif" font-size="14.00">show</text>
<text text-anchor="start" x="-559.046" y="-758.099" font-family="Times,serif" font-size="14.00">update</text>
<polyline fill="none" stroke="black" points="-567.046,-750.299 -458.046,-750.299 "/>
<polyline fill="none" stroke="black" points="-567.046,-726.299 -458.046,-726.299 "/>
<text text-anchor="start" x="-559.046" y="-711.099" font-family="Times,serif" font-size="14.00">_layout</text>
<text text-anchor="start" x="-559.046" y="-696.099" font-family="Times,serif" font-size="14.00">set_sobre</text>
<text text-anchor="start" x="-559.046" y="-681.099" font-family="Times,serif" font-size="14.00">sobre_params</text>
</g>
<!-- ApplicationController&#45;&gt;SobresController -->
<g id="edge5" class="edge"><title>ApplicationController&#45;&gt;SobresController</title>
<path fill="none" stroke="black" d="M-188.956,-144.119C-243.988,-252.228 -381.441,-522.248 -458.322,-673.277"/>
</g>
<!-- ArticlesController -->
<g id="node8" class="node"><title>ArticlesController</title>
<path fill="none" stroke="black" d="M-592.605,64.84C-592.605,64.84 -501.605,64.84 -501.605,64.84 -495.605,64.84 -489.605,58.84 -489.605,52.84 -489.605,52.84 -489.605,-106.16 -489.605,-106.16 -489.605,-112.16 -495.605,-118.16 -501.605,-118.16 -501.605,-118.16 -592.605,-118.16 -592.605,-118.16 -598.605,-118.16 -604.605,-112.16 -604.605,-106.16 -604.605,-106.16 -604.605,52.84 -604.605,52.84 -604.605,58.84 -598.605,64.84 -592.605,64.84"/>
<text text-anchor="middle" x="-547.105" y="-102.96" font-family="Times,serif" font-size="14.00">ArticlesController</text>
<polyline fill="none" stroke="black" points="-604.605,-95.16 -489.605,-95.16 "/>
<text text-anchor="start" x="-596.605" y="-79.96" font-family="Times,serif" font-size="14.00">create</text>
<text text-anchor="start" x="-596.605" y="-64.96" font-family="Times,serif" font-size="14.00">destroy</text>
<text text-anchor="start" x="-596.605" y="-49.96" font-family="Times,serif" font-size="14.00">edit</text>
<text text-anchor="start" x="-596.605" y="-34.96" font-family="Times,serif" font-size="14.00">index</text>
<text text-anchor="start" x="-596.605" y="-19.96" font-family="Times,serif" font-size="14.00">new</text>
<text text-anchor="start" x="-596.605" y="-4.95999" font-family="Times,serif" font-size="14.00">show</text>
<text text-anchor="start" x="-596.605" y="10.04" font-family="Times,serif" font-size="14.00">update</text>
<polyline fill="none" stroke="black" points="-604.605,17.84 -489.605,17.84 "/>
<polyline fill="none" stroke="black" points="-604.605,41.84 -489.605,41.84 "/>
<text text-anchor="start" x="-596.605" y="57.04" font-family="Times,serif" font-size="14.00">_layout</text>
</g>
<!-- ApplicationController&#45;&gt;ArticlesController -->
<g id="edge6" class="edge"><title>ApplicationController&#45;&gt;ArticlesController</title>
<path fill="none" stroke="black" d="M-262.573,-79.433C-334.282,-66.133 -429.387,-48.4934 -489.428,-37.3575"/>
</g>
<!-- DeviseController -->
<g id="node9" class="node"><title>DeviseController</title>
<path fill="none" stroke="black" d="M71.4186,511.667C71.4186,511.667 238.419,511.667 238.419,511.667 244.419,511.667 250.419,505.667 250.419,499.667 250.419,499.667 250.419,131.667 250.419,131.667 250.419,125.667 244.419,119.667 238.419,119.667 238.419,119.667 71.4186,119.667 71.4186,119.667 65.4186,119.667 59.4186,125.667 59.4186,131.667 59.4186,131.667 59.4186,499.667 59.4186,499.667 59.4186,505.667 65.4186,511.667 71.4186,511.667"/>
<text text-anchor="middle" x="154.919" y="134.867" font-family="Times,serif" font-size="14.00">DeviseController</text>
<polyline fill="none" stroke="black" points="59.4186,142.667 250.419,142.667 "/>
<text text-anchor="start" x="67.4186" y="157.867" font-family="Times,serif" font-size="14.00">_prefixes</text>
<polyline fill="none" stroke="black" points="59.4186,165.667 250.419,165.667 "/>
<text text-anchor="start" x="67.4186" y="180.867" font-family="Times,serif" font-size="14.00">assert_is_devise_resource!</text>
<text text-anchor="start" x="67.4186" y="195.867" font-family="Times,serif" font-size="14.00">clean_up_passwords</text>
<text text-anchor="start" x="67.4186" y="210.867" font-family="Times,serif" font-size="14.00">devise_i18n_options</text>
<text text-anchor="start" x="67.4186" y="225.867" font-family="Times,serif" font-size="14.00">devise_mapping</text>
<text text-anchor="start" x="67.4186" y="240.867" font-family="Times,serif" font-size="14.00">find_message</text>
<text text-anchor="start" x="67.4186" y="255.867" font-family="Times,serif" font-size="14.00">navigational_formats</text>
<text text-anchor="start" x="67.4186" y="270.867" font-family="Times,serif" font-size="14.00">require_no_authentication</text>
<text text-anchor="start" x="67.4186" y="285.867" font-family="Times,serif" font-size="14.00">resource</text>
<text text-anchor="start" x="67.4186" y="300.867" font-family="Times,serif" font-size="14.00">resource=</text>
<text text-anchor="start" x="67.4186" y="315.867" font-family="Times,serif" font-size="14.00">resource_class</text>
<text text-anchor="start" x="67.4186" y="330.867" font-family="Times,serif" font-size="14.00">resource_name</text>
<text text-anchor="start" x="67.4186" y="345.867" font-family="Times,serif" font-size="14.00">resource_params</text>
<text text-anchor="start" x="67.4186" y="360.867" font-family="Times,serif" font-size="14.00">respond_with_navigational</text>
<text text-anchor="start" x="67.4186" y="375.867" font-family="Times,serif" font-size="14.00">scope_name</text>
<text text-anchor="start" x="67.4186" y="390.867" font-family="Times,serif" font-size="14.00">set_flash_message</text>
<text text-anchor="start" x="67.4186" y="405.867" font-family="Times,serif" font-size="14.00">set_flash_message!</text>
<text text-anchor="start" x="67.4186" y="420.867" font-family="Times,serif" font-size="14.00">set_minimum_password_length</text>
<text text-anchor="start" x="67.4186" y="435.867" font-family="Times,serif" font-size="14.00">signed_in_resource</text>
<text text-anchor="start" x="67.4186" y="450.867" font-family="Times,serif" font-size="14.00">successfully_sent?</text>
<text text-anchor="start" x="67.4186" y="465.867" font-family="Times,serif" font-size="14.00">translation_scope</text>
<text text-anchor="start" x="67.4186" y="480.867" font-family="Times,serif" font-size="14.00">unknown_action!</text>
<polyline fill="none" stroke="black" points="59.4186,488.667 250.419,488.667 "/>
<text text-anchor="start" x="67.4186" y="503.867" font-family="Times,serif" font-size="14.00">_layout</text>
</g>
<!-- ApplicationController&#45;&gt;DeviseController -->
<g id="edge7" class="edge"><title>ApplicationController&#45;&gt;DeviseController</title>
<path fill="none" stroke="black" d="M-129.118,-50.8984C-83.7397,7.66448 -4.11355,110.427 59.3063,192.274"/>
</g>
<!-- Ckeditor::ApplicationController -->
<g id="node18" class="node"><title>Ckeditor::ApplicationController</title>
<path fill="none" stroke="black" d="M71.5382,-322.837C71.5382,-322.837 238.538,-322.837 238.538,-322.837 244.538,-322.837 250.538,-328.837 250.538,-334.837 250.538,-334.837 250.538,-403.837 250.538,-403.837 250.538,-409.837 244.538,-415.837 238.538,-415.837 238.538,-415.837 71.5382,-415.837 71.5382,-415.837 65.5382,-415.837 59.5382,-409.837 59.5382,-403.837 59.5382,-403.837 59.5382,-334.837 59.5382,-334.837 59.5382,-328.837 65.5382,-322.837 71.5382,-322.837"/>
<text text-anchor="middle" x="155.038" y="-400.637" font-family="Times,serif" font-size="14.00">Ckeditor::ApplicationController</text>
<polyline fill="none" stroke="black" points="59.5382,-392.837 250.538,-392.837 "/>
<polyline fill="none" stroke="black" points="59.5382,-368.837 250.538,-368.837 "/>
<text text-anchor="start" x="67.5382" y="-353.637" font-family="Times,serif" font-size="14.00">respond_with_asset</text>
<polyline fill="none" stroke="black" points="59.5382,-345.837 250.538,-345.837 "/>
<text text-anchor="start" x="67.5382" y="-330.637" font-family="Times,serif" font-size="14.00">_layout</text>
</g>
<!-- ApplicationController&#45;&gt;Ckeditor::ApplicationController -->
<g id="edge14" class="edge"><title>ApplicationController&#45;&gt;Ckeditor::ApplicationController</title>
<path fill="none" stroke="black" d="M-110.165,-144.222C-51.3264,-194.166 41.3995,-272.876 100.167,-322.76"/>
</g>
<!-- Devise::PasswordsController -->
<g id="node10" class="node"><title>Devise::PasswordsController</title>
<path fill="none" stroke="black" d="M-649.047,796.329C-649.047,796.329 -371.047,796.329 -371.047,796.329 -365.047,796.329 -359.047,790.329 -359.047,784.329 -359.047,784.329 -359.047,611.329 -359.047,611.329 -359.047,605.329 -365.047,599.329 -371.047,599.329 -371.047,599.329 -649.047,599.329 -649.047,599.329 -655.047,599.329 -661.047,605.329 -661.047,611.329 -661.047,611.329 -661.047,784.329 -661.047,784.329 -661.047,790.329 -655.047,796.329 -649.047,796.329"/>
<text text-anchor="middle" x="-510.047" y="614.529" font-family="Times,serif" font-size="14.00">Devise::PasswordsController</text>
<polyline fill="none" stroke="black" points="-661.047,622.329 -359.047,622.329 "/>
<text text-anchor="start" x="-653.047" y="637.529" font-family="Times,serif" font-size="14.00">create</text>
<text text-anchor="start" x="-653.047" y="652.529" font-family="Times,serif" font-size="14.00">edit</text>
<text text-anchor="start" x="-653.047" y="667.529" font-family="Times,serif" font-size="14.00">new</text>
<text text-anchor="start" x="-653.047" y="682.529" font-family="Times,serif" font-size="14.00">update</text>
<polyline fill="none" stroke="black" points="-661.047,690.329 -359.047,690.329 "/>
<text text-anchor="start" x="-653.047" y="705.529" font-family="Times,serif" font-size="14.00">after_resetting_password_path_for</text>
<text text-anchor="start" x="-653.047" y="720.529" font-family="Times,serif" font-size="14.00">after_sending_reset_password_instructions_path_for</text>
<text text-anchor="start" x="-653.047" y="735.529" font-family="Times,serif" font-size="14.00">assert_reset_token_passed</text>
<text text-anchor="start" x="-653.047" y="750.529" font-family="Times,serif" font-size="14.00">translation_scope</text>
<text text-anchor="start" x="-653.047" y="765.529" font-family="Times,serif" font-size="14.00">unlockable?</text>
<polyline fill="none" stroke="black" points="-661.047,773.329 -359.047,773.329 "/>
<text text-anchor="start" x="-653.047" y="788.529" font-family="Times,serif" font-size="14.00">_layout</text>
</g>
<!-- DeviseController&#45;&gt;Devise::PasswordsController -->
<g id="edge8" class="edge"><title>DeviseController&#45;&gt;Devise::PasswordsController</title>
<path fill="none" stroke="black" d="M59.2915,370.625C-50.054,433.467 -230.489,537.165 -358.914,610.971"/>
</g>
<!-- Devise::UnlocksController -->
<g id="node11" class="node"><title>Devise::UnlocksController</title>
<path fill="none" stroke="black" d="M356.612,749.497C356.612,749.497 588.612,749.497 588.612,749.497 594.612,749.497 600.612,743.497 600.612,737.497 600.612,737.497 600.612,609.497 600.612,609.497 600.612,603.497 594.612,597.497 588.612,597.497 588.612,597.497 356.612,597.497 356.612,597.497 350.612,597.497 344.612,603.497 344.612,609.497 344.612,609.497 344.612,737.497 344.612,737.497 344.612,743.497 350.612,749.497 356.612,749.497"/>
<text text-anchor="middle" x="472.612" y="612.697" font-family="Times,serif" font-size="14.00">Devise::UnlocksController</text>
<polyline fill="none" stroke="black" points="344.612,620.497 600.612,620.497 "/>
<text text-anchor="start" x="352.612" y="635.697" font-family="Times,serif" font-size="14.00">create</text>
<text text-anchor="start" x="352.612" y="650.697" font-family="Times,serif" font-size="14.00">new</text>
<text text-anchor="start" x="352.612" y="665.697" font-family="Times,serif" font-size="14.00">show</text>
<polyline fill="none" stroke="black" points="344.612,673.497 600.612,673.497 "/>
<text text-anchor="start" x="352.612" y="688.697" font-family="Times,serif" font-size="14.00">after_sending_unlock_instructions_path_for</text>
<text text-anchor="start" x="352.612" y="703.697" font-family="Times,serif" font-size="14.00">after_unlock_path_for</text>
<text text-anchor="start" x="352.612" y="718.697" font-family="Times,serif" font-size="14.00">translation_scope</text>
<polyline fill="none" stroke="black" points="344.612,726.497 600.612,726.497 "/>
<text text-anchor="start" x="352.612" y="741.697" font-family="Times,serif" font-size="14.00">_layout</text>
</g>
<!-- DeviseController&#45;&gt;Devise::UnlocksController -->
<g id="edge9" class="edge"><title>DeviseController&#45;&gt;Devise::UnlocksController</title>
<path fill="none" stroke="black" d="M250.668,423.513C300.454,479.589 360.114,546.787 405.035,597.383"/>
</g>
<!-- Devise::RegistrationsController -->
<g id="node12" class="node"><title>Devise::RegistrationsController</title>
<path fill="none" stroke="black" d="M-109.523,859.209C-109.523,859.209 59.4772,859.209 59.4772,859.209 65.4772,859.209 71.4772,853.209 71.4772,847.209 71.4772,847.209 71.4772,554.209 71.4772,554.209 71.4772,548.209 65.4772,542.209 59.4772,542.209 59.4772,542.209 -109.523,542.209 -109.523,542.209 -115.523,542.209 -121.523,548.209 -121.523,554.209 -121.523,554.209 -121.523,847.209 -121.523,847.209 -121.523,853.209 -115.523,859.209 -109.523,859.209"/>
<text text-anchor="middle" x="-25.0228" y="557.409" font-family="Times,serif" font-size="14.00">Devise::RegistrationsController</text>
<polyline fill="none" stroke="black" points="-121.523,565.209 71.4772,565.209 "/>
<text text-anchor="start" x="-113.523" y="580.409" font-family="Times,serif" font-size="14.00">cancel</text>
<text text-anchor="start" x="-113.523" y="595.409" font-family="Times,serif" font-size="14.00">create</text>
<text text-anchor="start" x="-113.523" y="610.409" font-family="Times,serif" font-size="14.00">destroy</text>
<text text-anchor="start" x="-113.523" y="625.409" font-family="Times,serif" font-size="14.00">edit</text>
<text text-anchor="start" x="-113.523" y="640.409" font-family="Times,serif" font-size="14.00">new</text>
<text text-anchor="start" x="-113.523" y="655.409" font-family="Times,serif" font-size="14.00">update</text>
<polyline fill="none" stroke="black" points="-121.523,663.209 71.4772,663.209 "/>
<text text-anchor="start" x="-113.523" y="678.409" font-family="Times,serif" font-size="14.00">account_update_params</text>
<text text-anchor="start" x="-113.523" y="693.409" font-family="Times,serif" font-size="14.00">after_inactive_sign_up_path_for</text>
<text text-anchor="start" x="-113.523" y="708.409" font-family="Times,serif" font-size="14.00">after_sign_up_path_for</text>
<text text-anchor="start" x="-113.523" y="723.409" font-family="Times,serif" font-size="14.00">after_update_path_for</text>
<text text-anchor="start" x="-113.523" y="738.409" font-family="Times,serif" font-size="14.00">authenticate_scope!</text>
<text text-anchor="start" x="-113.523" y="753.409" font-family="Times,serif" font-size="14.00">build_resource</text>
<text text-anchor="start" x="-113.523" y="768.409" font-family="Times,serif" font-size="14.00">sign_up</text>
<text text-anchor="start" x="-113.523" y="783.409" font-family="Times,serif" font-size="14.00">sign_up_params</text>
<text text-anchor="start" x="-113.523" y="798.409" font-family="Times,serif" font-size="14.00">translation_scope</text>
<text text-anchor="start" x="-113.523" y="813.409" font-family="Times,serif" font-size="14.00">update_needs_confirmation?</text>
<text text-anchor="start" x="-113.523" y="828.409" font-family="Times,serif" font-size="14.00">update_resource</text>
<polyline fill="none" stroke="black" points="-121.523,836.209 71.4772,836.209 "/>
<text text-anchor="start" x="-113.523" y="851.409" font-family="Times,serif" font-size="14.00">_layout</text>
</g>
<!-- DeviseController&#45;&gt;Devise::RegistrationsController -->
<g id="edge10" class="edge"><title>DeviseController&#45;&gt;Devise::RegistrationsController</title>
<path fill="none" stroke="black" d="M63.2347,511.854C58.5078,521.969 53.7871,532.07 49.125,542.046"/>
</g>
<!-- Devise::OmniauthCallbacksController -->
<g id="node13" class="node"><title>Devise::OmniauthCallbacksController</title>
<path fill="none" stroke="black" d="M-676.371,367.904C-676.371,367.904 -475.371,367.904 -475.371,367.904 -469.371,367.904 -463.371,361.904 -463.371,355.904 -463.371,355.904 -463.371,227.904 -463.371,227.904 -463.371,221.904 -469.371,215.904 -475.371,215.904 -475.371,215.904 -676.371,215.904 -676.371,215.904 -682.371,215.904 -688.371,221.904 -688.371,227.904 -688.371,227.904 -688.371,355.904 -688.371,355.904 -688.371,361.904 -682.371,367.904 -676.371,367.904"/>
<text text-anchor="middle" x="-575.871" y="231.104" font-family="Times,serif" font-size="14.00">Devise::OmniauthCallbacksController</text>
<polyline fill="none" stroke="black" points="-688.371,238.904 -463.371,238.904 "/>
<text text-anchor="start" x="-680.371" y="254.104" font-family="Times,serif" font-size="14.00">failure</text>
<text text-anchor="start" x="-680.371" y="269.104" font-family="Times,serif" font-size="14.00">passthru</text>
<polyline fill="none" stroke="black" points="-688.371,276.904 -463.371,276.904 "/>
<text text-anchor="start" x="-680.371" y="292.104" font-family="Times,serif" font-size="14.00">after_omniauth_failure_path_for</text>
<text text-anchor="start" x="-680.371" y="307.104" font-family="Times,serif" font-size="14.00">failed_strategy</text>
<text text-anchor="start" x="-680.371" y="322.104" font-family="Times,serif" font-size="14.00">failure_message</text>
<text text-anchor="start" x="-680.371" y="337.104" font-family="Times,serif" font-size="14.00">translation_scope</text>
<polyline fill="none" stroke="black" points="-688.371,344.904 -463.371,344.904 "/>
<text text-anchor="start" x="-680.371" y="360.104" font-family="Times,serif" font-size="14.00">_layout</text>
</g>
<!-- DeviseController&#45;&gt;Devise::OmniauthCallbacksController -->
<g id="edge11" class="edge"><title>DeviseController&#45;&gt;Devise::OmniauthCallbacksController</title>
<path fill="none" stroke="black" d="M59.2565,329.993C7.94944,336.962 -56.4389,344.568 -114.222,348.029 -175.623,351.707 -191.338,353.31 -252.622,348.029 -323.133,341.953 -401.345,328.554 -463.173,316.372"/>
</g>
<!-- Devise::SessionsController -->
<g id="node14" class="node"><title>Devise::SessionsController</title>
<path fill="none" stroke="black" d="M458.227,287.867C458.227,287.867 598.227,287.867 598.227,287.867 604.227,287.867 610.227,281.867 610.227,275.867 610.227,275.867 610.227,87.8669 610.227,87.8669 610.227,81.8669 604.227,75.8669 598.227,75.8669 598.227,75.8669 458.227,75.8669 458.227,75.8669 452.227,75.8669 446.227,81.8669 446.227,87.8669 446.227,87.8669 446.227,275.867 446.227,275.867 446.227,281.867 452.227,287.867 458.227,287.867"/>
<text text-anchor="middle" x="528.227" y="91.0669" font-family="Times,serif" font-size="14.00">Devise::SessionsController</text>
<polyline fill="none" stroke="black" points="446.227,98.8669 610.227,98.8669 "/>
<text text-anchor="start" x="454.227" y="114.067" font-family="Times,serif" font-size="14.00">create</text>
<text text-anchor="start" x="454.227" y="129.067" font-family="Times,serif" font-size="14.00">destroy</text>
<text text-anchor="start" x="454.227" y="144.067" font-family="Times,serif" font-size="14.00">new</text>
<polyline fill="none" stroke="black" points="446.227,151.867 610.227,151.867 "/>
<text text-anchor="start" x="454.227" y="167.067" font-family="Times,serif" font-size="14.00">auth_options</text>
<text text-anchor="start" x="454.227" y="182.067" font-family="Times,serif" font-size="14.00">serialize_options</text>
<text text-anchor="start" x="454.227" y="197.067" font-family="Times,serif" font-size="14.00">sign_in_params</text>
<text text-anchor="start" x="454.227" y="212.067" font-family="Times,serif" font-size="14.00">translation_scope</text>
<polyline fill="none" stroke="black" points="446.227,219.867 610.227,219.867 "/>
<text text-anchor="start" x="454.227" y="235.067" font-family="Times,serif" font-size="14.00">_layout</text>
<text text-anchor="start" x="454.227" y="250.067" font-family="Times,serif" font-size="14.00">all_signed_out?</text>
<text text-anchor="start" x="454.227" y="265.067" font-family="Times,serif" font-size="14.00">respond_to_on_destroy</text>
<text text-anchor="start" x="454.227" y="280.067" font-family="Times,serif" font-size="14.00">verify_signed_out_user</text>
</g>
<!-- DeviseController&#45;&gt;Devise::SessionsController -->
<g id="edge12" class="edge"><title>DeviseController&#45;&gt;Devise::SessionsController</title>
<path fill="none" stroke="black" d="M250.57,281.384C311.058,259.704 388.426,231.974 446.122,211.295"/>
</g>
<!-- Devise::ConfirmationsController -->
<g id="node15" class="node"><title>Devise::ConfirmationsController</title>
<path fill="none" stroke="black" d="M388.258,-168.391C388.258,-168.391 664.258,-168.391 664.258,-168.391 670.258,-168.391 676.258,-174.391 676.258,-180.391 676.258,-180.391 676.258,-308.391 676.258,-308.391 676.258,-314.391 670.258,-320.391 664.258,-320.391 664.258,-320.391 388.258,-320.391 388.258,-320.391 382.258,-320.391 376.258,-314.391 376.258,-308.391 376.258,-308.391 376.258,-180.391 376.258,-180.391 376.258,-174.391 382.258,-168.391 388.258,-168.391"/>
<text text-anchor="middle" x="526.258" y="-305.191" font-family="Times,serif" font-size="14.00">Devise::ConfirmationsController</text>
<polyline fill="none" stroke="black" points="376.258,-297.391 676.258,-297.391 "/>
<text text-anchor="start" x="384.258" y="-282.191" font-family="Times,serif" font-size="14.00">create</text>
<text text-anchor="start" x="384.258" y="-267.191" font-family="Times,serif" font-size="14.00">new</text>
<text text-anchor="start" x="384.258" y="-252.191" font-family="Times,serif" font-size="14.00">show</text>
<polyline fill="none" stroke="black" points="376.258,-244.391 676.258,-244.391 "/>
<text text-anchor="start" x="384.258" y="-229.191" font-family="Times,serif" font-size="14.00">after_confirmation_path_for</text>
<text text-anchor="start" x="384.258" y="-214.191" font-family="Times,serif" font-size="14.00">after_resending_confirmation_instructions_path_for</text>
<text text-anchor="start" x="384.258" y="-199.191" font-family="Times,serif" font-size="14.00">translation_scope</text>
<polyline fill="none" stroke="black" points="376.258,-191.391 676.258,-191.391 "/>
<text text-anchor="start" x="384.258" y="-176.191" font-family="Times,serif" font-size="14.00">_layout</text>
</g>
<!-- DeviseController&#45;&gt;Devise::ConfirmationsController -->
<g id="edge13" class="edge"><title>DeviseController&#45;&gt;Devise::ConfirmationsController</title>
<path fill="none" stroke="black" d="M250.548,171.439C322.43,63.0258 418.069,-81.2177 475.742,-168.201"/>
</g>
<!-- RailsAdmin::ApplicationController -->
<g id="node16" class="node"><title>RailsAdmin::ApplicationController</title>
<path fill="none" stroke="black" d="M786.5,773.5C786.5,773.5 971.5,773.5 971.5,773.5 977.5,773.5 983.5,767.5 983.5,761.5 983.5,761.5 983.5,512.5 983.5,512.5 983.5,506.5 977.5,500.5 971.5,500.5 971.5,500.5 786.5,500.5 786.5,500.5 780.5,500.5 774.5,506.5 774.5,512.5 774.5,512.5 774.5,761.5 774.5,761.5 774.5,767.5 780.5,773.5 786.5,773.5"/>
<text text-anchor="middle" x="879" y="515.7" font-family="Times,serif" font-size="14.00">RailsAdmin::ApplicationController</text>
<polyline fill="none" stroke="black" points="774.5,523.5 983.5,523.5 "/>
<text text-anchor="start" x="782.5" y="538.7" font-family="Times,serif" font-size="14.00">_current_user</text>
<text text-anchor="start" x="782.5" y="553.7" font-family="Times,serif" font-size="14.00">abstract_model</text>
<text text-anchor="start" x="782.5" y="568.7" font-family="Times,serif" font-size="14.00">authorization_adapter</text>
<text text-anchor="start" x="782.5" y="583.7" font-family="Times,serif" font-size="14.00">get_model</text>
<text text-anchor="start" x="782.5" y="598.7" font-family="Times,serif" font-size="14.00">get_object</text>
<text text-anchor="start" x="782.5" y="613.7" font-family="Times,serif" font-size="14.00">model_config</text>
<text text-anchor="start" x="782.5" y="628.7" font-family="Times,serif" font-size="14.00">object</text>
<text text-anchor="start" x="782.5" y="643.7" font-family="Times,serif" font-size="14.00">to_model_name</text>
<polyline fill="none" stroke="black" points="774.5,651.5 983.5,651.5 "/>
<polyline fill="none" stroke="black" points="774.5,675.5 983.5,675.5 "/>
<text text-anchor="start" x="782.5" y="690.7" font-family="Times,serif" font-size="14.00">_audit!</text>
<text text-anchor="start" x="782.5" y="705.7" font-family="Times,serif" font-size="14.00">_authenticate!</text>
<text text-anchor="start" x="782.5" y="720.7" font-family="Times,serif" font-size="14.00">_authorize!</text>
<text text-anchor="start" x="782.5" y="735.7" font-family="Times,serif" font-size="14.00">_get_plugin_name</text>
<text text-anchor="start" x="782.5" y="750.7" font-family="Times,serif" font-size="14.00">_layout</text>
<text text-anchor="start" x="782.5" y="765.7" font-family="Times,serif" font-size="14.00">rails_admin_controller?</text>
</g>
<!-- RailsAdmin::MainController -->
<g id="node17" class="node"><title>RailsAdmin::MainController</title>
<path fill="none" stroke="black" d="M700,-430.5C700,-430.5 894,-430.5 894,-430.5 900,-430.5 906,-436.5 906,-442.5 906,-442.5 906,-811.5 906,-811.5 906,-817.5 900,-823.5 894,-823.5 894,-823.5 700,-823.5 700,-823.5 694,-823.5 688,-817.5 688,-811.5 688,-811.5 688,-442.5 688,-442.5 688,-436.5 694,-430.5 700,-430.5"/>
<text text-anchor="middle" x="797" y="-808.3" font-family="Times,serif" font-size="14.00">RailsAdmin::MainController</text>
<polyline fill="none" stroke="black" points="688,-800.5 906,-800.5 "/>
<text text-anchor="start" x="696" y="-785.3" font-family="Times,serif" font-size="14.00">bulk_action</text>
<text text-anchor="start" x="696" y="-770.3" font-family="Times,serif" font-size="14.00">bulk_delete</text>
<text text-anchor="start" x="696" y="-755.3" font-family="Times,serif" font-size="14.00">dashboard</text>
<text text-anchor="start" x="696" y="-740.3" font-family="Times,serif" font-size="14.00">delete</text>
<text text-anchor="start" x="696" y="-725.3" font-family="Times,serif" font-size="14.00">edit</text>
<text text-anchor="start" x="696" y="-710.3" font-family="Times,serif" font-size="14.00">export</text>
<text text-anchor="start" x="696" y="-695.3" font-family="Times,serif" font-size="14.00">index</text>
<text text-anchor="start" x="696" y="-680.3" font-family="Times,serif" font-size="14.00">list_entries</text>
<text text-anchor="start" x="696" y="-665.3" font-family="Times,serif" font-size="14.00">new</text>
<text text-anchor="start" x="696" y="-650.3" font-family="Times,serif" font-size="14.00">show</text>
<text text-anchor="start" x="696" y="-635.3" font-family="Times,serif" font-size="14.00">show_in_app</text>
<polyline fill="none" stroke="black" points="688,-627.5 906,-627.5 "/>
<polyline fill="none" stroke="black" points="688,-603.5 906,-603.5 "/>
<text text-anchor="start" x="696" y="-588.3" font-family="Times,serif" font-size="14.00">_layout</text>
<text text-anchor="start" x="696" y="-573.3" font-family="Times,serif" font-size="14.00">back_or_index</text>
<text text-anchor="start" x="696" y="-558.3" font-family="Times,serif" font-size="14.00">check_for_cancel</text>
<text text-anchor="start" x="696" y="-543.3" font-family="Times,serif" font-size="14.00">get_association_scope_from_params</text>
<text text-anchor="start" x="696" y="-528.3" font-family="Times,serif" font-size="14.00">get_collection</text>
<text text-anchor="start" x="696" y="-513.3" font-family="Times,serif" font-size="14.00">get_layout</text>
<text text-anchor="start" x="696" y="-498.3" font-family="Times,serif" font-size="14.00">get_sort_hash</text>
<text text-anchor="start" x="696" y="-483.3" font-family="Times,serif" font-size="14.00">handle_save_error</text>
<text text-anchor="start" x="696" y="-468.3" font-family="Times,serif" font-size="14.00">redirect_to_on_success</text>
<text text-anchor="start" x="696" y="-453.3" font-family="Times,serif" font-size="14.00">sanitize_params_for!</text>
<text text-anchor="start" x="696" y="-438.3" font-family="Times,serif" font-size="14.00">visible_fields</text>
</g>
<!-- Ckeditor::AttachmentFilesController -->
<g id="node19" class="node"><title>Ckeditor::AttachmentFilesController</title>
<path fill="none" stroke="black" d="M-95.7782,-727.537C-95.7782,-727.537 97.2218,-727.537 97.2218,-727.537 103.222,-727.537 109.222,-733.537 109.222,-739.537 109.222,-739.537 109.222,-852.537 109.222,-852.537 109.222,-858.537 103.222,-864.537 97.2218,-864.537 97.2218,-864.537 -95.7782,-864.537 -95.7782,-864.537 -101.778,-864.537 -107.778,-858.537 -107.778,-852.537 -107.778,-852.537 -107.778,-739.537 -107.778,-739.537 -107.778,-733.537 -101.778,-727.537 -95.7782,-727.537"/>
<text text-anchor="middle" x="0.721829" y="-849.337" font-family="Times,serif" font-size="14.00">Ckeditor::AttachmentFilesController</text>
<polyline fill="none" stroke="black" points="-107.778,-841.537 109.222,-841.537 "/>
<text text-anchor="start" x="-99.7782" y="-826.337" font-family="Times,serif" font-size="14.00">create</text>
<text text-anchor="start" x="-99.7782" y="-811.337" font-family="Times,serif" font-size="14.00">destroy</text>
<text text-anchor="start" x="-99.7782" y="-796.337" font-family="Times,serif" font-size="14.00">index</text>
<polyline fill="none" stroke="black" points="-107.778,-788.537 109.222,-788.537 "/>
<text text-anchor="start" x="-99.7782" y="-773.337" font-family="Times,serif" font-size="14.00">authorize_resource</text>
<text text-anchor="start" x="-99.7782" y="-758.337" font-family="Times,serif" font-size="14.00">find_asset</text>
<polyline fill="none" stroke="black" points="-107.778,-750.537 109.222,-750.537 "/>
<text text-anchor="start" x="-99.7782" y="-735.337" font-family="Times,serif" font-size="14.00">_layout</text>
</g>
<!-- Ckeditor::ApplicationController&#45;&gt;Ckeditor::AttachmentFilesController -->
<g id="edge15" class="edge"><title>Ckeditor::ApplicationController&#45;&gt;Ckeditor::AttachmentFilesController</title>
<path fill="none" stroke="black" d="M138.082,-416.222C110.835,-491.562 57.1702,-639.951 25.5864,-727.284"/>
</g>
<!-- Ckeditor::PicturesController -->
<g id="node20" class="node"><title>Ckeditor::PicturesController</title>
<path fill="none" stroke="black" d="M409.479,-673.881C409.479,-673.881 555.479,-673.881 555.479,-673.881 561.479,-673.881 567.479,-679.881 567.479,-685.881 567.479,-685.881 567.479,-798.881 567.479,-798.881 567.479,-804.881 561.479,-810.881 555.479,-810.881 555.479,-810.881 409.479,-810.881 409.479,-810.881 403.479,-810.881 397.479,-804.881 397.479,-798.881 397.479,-798.881 397.479,-685.881 397.479,-685.881 397.479,-679.881 403.479,-673.881 409.479,-673.881"/>
<text text-anchor="middle" x="482.479" y="-795.681" font-family="Times,serif" font-size="14.00">Ckeditor::PicturesController</text>
<polyline fill="none" stroke="black" points="397.479,-787.881 567.479,-787.881 "/>
<text text-anchor="start" x="405.479" y="-772.681" font-family="Times,serif" font-size="14.00">create</text>
<text text-anchor="start" x="405.479" y="-757.681" font-family="Times,serif" font-size="14.00">destroy</text>
<text text-anchor="start" x="405.479" y="-742.681" font-family="Times,serif" font-size="14.00">index</text>
<polyline fill="none" stroke="black" points="397.479,-734.881 567.479,-734.881 "/>
<text text-anchor="start" x="405.479" y="-719.681" font-family="Times,serif" font-size="14.00">authorize_resource</text>
<text text-anchor="start" x="405.479" y="-704.681" font-family="Times,serif" font-size="14.00">find_asset</text>
<polyline fill="none" stroke="black" points="397.479,-696.881 567.479,-696.881 "/>
<text text-anchor="start" x="405.479" y="-681.681" font-family="Times,serif" font-size="14.00">_layout</text>
</g>
<!-- Ckeditor::ApplicationController&#45;&gt;Ckeditor::PicturesController -->
<g id="edge16" class="edge"><title>Ckeditor::ApplicationController&#45;&gt;Ckeditor::PicturesController</title>
<path fill="none" stroke="black" d="M196.177,-416.205C253.203,-481.174 356.655,-599.033 422.347,-673.874"/>
</g>
</g>
</svg>
