<?xml version="1.0" encoding="UTF-8" standalone="no"?>
<!DOCTYPE svg PUBLIC "-//W3C//DTD SVG 1.1//EN"
 "http://www.w3.org/Graphics/SVG/1.1/DTD/svg11.dtd">
<!-- Generated by graphviz version 2.38.0 (20140413.2041)
 -->
<!-- Title: models_diagram Pages: 1 -->
<svg width="1155pt" height="994pt"
 viewBox="0.00 0.00 1154.75 994.00" xmlns="http://www.w3.org/2000/svg" xmlns:xlink="http://www.w3.org/1999/xlink">
<g id="graph0" class="graph" transform="scale(1 1) rotate(0) translate(4 990)">
<title>models_diagram</title>
<polygon fill="none" stroke="none" points="-4,4 -4,-990 1150.75,-990 1150.75,4 -4,4"/>
<!-- _diagram_info -->
<g id="node1" class="node"><title>_diagram_info</title>
<text text-anchor="start" x="71.2527" y="-919.6" font-family="Times,serif" font-size="13.00">Models diagram</text>
<text text-anchor="start" x="71.2527" y="-905.6" font-family="Times,serif" font-size="13.00">Date: Dec 10 2017 &#45; 01:30</text>
<text text-anchor="start" x="71.2527" y="-891.6" font-family="Times,serif" font-size="13.00">Migration version: 20171209111059</text>
<text text-anchor="start" x="71.2527" y="-877.6" font-family="Times,serif" font-size="13.00">Generated by RailRoady 1.5.3</text>
<text text-anchor="start" x="71.2527" y="-863.6" font-family="Times,serif" font-size="13.00">http://railroady.prestonlee.com</text>
</g>
<!-- Comment -->
<g id="node2" class="node"><title>Comment</title>
<path fill="none" stroke="black" d="M448.253,-0.5C448.253,-0.5 560.253,-0.5 560.253,-0.5 566.253,-0.5 572.253,-6.5 572.253,-12.5 572.253,-12.5 572.253,-109.5 572.253,-109.5 572.253,-115.5 566.253,-121.5 560.253,-121.5 560.253,-121.5 448.253,-121.5 448.253,-121.5 442.253,-121.5 436.253,-115.5 436.253,-109.5 436.253,-109.5 436.253,-12.5 436.253,-12.5 436.253,-6.5 442.253,-0.5 448.253,-0.5"/>
<text text-anchor="middle" x="504.253" y="-106.3" font-family="Times,serif" font-size="14.00">Comment</text>
<polyline fill="none" stroke="black" points="436.253,-98.5 572.253,-98.5 "/>
<text text-anchor="start" x="444.253" y="-83.3" font-family="Times,serif" font-size="14.00">id :INTEGER</text>
<text text-anchor="start" x="444.253" y="-68.3" font-family="Times,serif" font-size="14.00">author_name :varchar</text>
<text text-anchor="start" x="444.253" y="-53.3" font-family="Times,serif" font-size="14.00">body :text</text>
<text text-anchor="start" x="444.253" y="-38.3" font-family="Times,serif" font-size="14.00">article_id :integer</text>
<text text-anchor="start" x="444.253" y="-23.3" font-family="Times,serif" font-size="14.00">created_at :datetime</text>
<text text-anchor="start" x="444.253" y="-8.3" font-family="Times,serif" font-size="14.00">updated_at :datetime</text>
</g>
<!-- ApplicationRecord -->
<g id="node3" class="node"><title>ApplicationRecord</title>
<ellipse fill="none" stroke="black" cx="372.253" cy="-895" rx="77.1866" ry="18"/>
<text text-anchor="middle" x="372.253" y="-891.3" font-family="Times,serif" font-size="14.00">ApplicationRecord</text>
</g>
<!-- ApplicationRecord&#45;&gt;Comment -->
<g id="edge1" class="edge"><title>ApplicationRecord&#45;&gt;Comment</title>
<path fill="none" stroke="black" d="M448.838,-892.251C535.578,-885.663 673.393,-860.245 739.253,-768 785.996,-702.53 763,-482.86 739.253,-406 704.611,-293.878 619.484,-185.699 561.78,-121.502"/>
</g>
<!-- Tagging -->
<g id="node5" class="node"><title>Tagging</title>
<path fill="none" stroke="black" d="M44.7527,-8C44.7527,-8 151.753,-8 151.753,-8 157.753,-8 163.753,-14 163.753,-20 163.753,-20 163.753,-102 163.753,-102 163.753,-108 157.753,-114 151.753,-114 151.753,-114 44.7527,-114 44.7527,-114 38.7527,-114 32.7527,-108 32.7527,-102 32.7527,-102 32.7527,-20 32.7527,-20 32.7527,-14 38.7527,-8 44.7527,-8"/>
<text text-anchor="middle" x="98.2527" y="-98.8" font-family="Times,serif" font-size="14.00">Tagging</text>
<polyline fill="none" stroke="black" points="32.7527,-91 163.753,-91 "/>
<text text-anchor="start" x="40.7527" y="-75.8" font-family="Times,serif" font-size="14.00">id :INTEGER</text>
<text text-anchor="start" x="40.7527" y="-60.8" font-family="Times,serif" font-size="14.00">tag_id :integer</text>
<text text-anchor="start" x="40.7527" y="-45.8" font-family="Times,serif" font-size="14.00">article_id :integer</text>
<text text-anchor="start" x="40.7527" y="-30.8" font-family="Times,serif" font-size="14.00">created_at :datetime</text>
<text text-anchor="start" x="40.7527" y="-15.8" font-family="Times,serif" font-size="14.00">updated_at :datetime</text>
</g>
<!-- ApplicationRecord&#45;&gt;Tagging -->
<g id="edge4" class="edge"><title>ApplicationRecord&#45;&gt;Tagging</title>
<path fill="none" stroke="black" d="M361.479,-877.145C347.087,-856.189 319.502,-821.099 286.253,-804 185.641,-752.257 108.38,-853.47 34.2527,-768 -50.1641,-670.667 46.3137,-260.293 84.2566,-114.04"/>
</g>
<!-- User -->
<g id="node6" class="node"><title>User</title>
<path fill="none" stroke="black" d="M542.253,-406.5C542.253,-406.5 718.253,-406.5 718.253,-406.5 724.253,-406.5 730.253,-412.5 730.253,-418.5 730.253,-418.5 730.253,-755.5 730.253,-755.5 730.253,-761.5 724.253,-767.5 718.253,-767.5 718.253,-767.5 542.253,-767.5 542.253,-767.5 536.253,-767.5 530.253,-761.5 530.253,-755.5 530.253,-755.5 530.253,-418.5 530.253,-418.5 530.253,-412.5 536.253,-406.5 542.253,-406.5"/>
<text text-anchor="middle" x="630.253" y="-752.3" font-family="Times,serif" font-size="14.00">User</text>
<polyline fill="none" stroke="black" points="530.253,-744.5 730.253,-744.5 "/>
<text text-anchor="start" x="538.253" y="-729.3" font-family="Times,serif" font-size="14.00">id :INTEGER</text>
<text text-anchor="start" x="538.253" y="-714.3" font-family="Times,serif" font-size="14.00">email :varchar</text>
<text text-anchor="start" x="538.253" y="-699.3" font-family="Times,serif" font-size="14.00">encrypted_password :varchar</text>
<text text-anchor="start" x="538.253" y="-684.3" font-family="Times,serif" font-size="14.00">reset_password_token :varchar</text>
<text text-anchor="start" x="538.253" y="-669.3" font-family="Times,serif" font-size="14.00">reset_password_sent_at :datetime</text>
<text text-anchor="start" x="538.253" y="-654.3" font-family="Times,serif" font-size="14.00">remember_created_at :datetime</text>
<text text-anchor="start" x="538.253" y="-639.3" font-family="Times,serif" font-size="14.00">sign_in_count :integer</text>
<text text-anchor="start" x="538.253" y="-624.3" font-family="Times,serif" font-size="14.00">current_sign_in_at :datetime</text>
<text text-anchor="start" x="538.253" y="-609.3" font-family="Times,serif" font-size="14.00">last_sign_in_at :datetime</text>
<text text-anchor="start" x="538.253" y="-594.3" font-family="Times,serif" font-size="14.00">current_sign_in_ip :varchar</text>
<text text-anchor="start" x="538.253" y="-579.3" font-family="Times,serif" font-size="14.00">last_sign_in_ip :varchar</text>
<text text-anchor="start" x="538.253" y="-564.3" font-family="Times,serif" font-size="14.00">created_at :datetime</text>
<text text-anchor="start" x="538.253" y="-549.3" font-family="Times,serif" font-size="14.00">updated_at :datetime</text>
<text text-anchor="start" x="538.253" y="-534.3" font-family="Times,serif" font-size="14.00">admin :boolean</text>
<text text-anchor="start" x="538.253" y="-519.3" font-family="Times,serif" font-size="14.00">professor :boolean</text>
<text text-anchor="start" x="538.253" y="-504.3" font-family="Times,serif" font-size="14.00">username :varchar</text>
<text text-anchor="start" x="538.253" y="-489.3" font-family="Times,serif" font-size="14.00">name :varchar</text>
<text text-anchor="start" x="538.253" y="-474.3" font-family="Times,serif" font-size="14.00">date_of_birth :datetime</text>
<text text-anchor="start" x="538.253" y="-459.3" font-family="Times,serif" font-size="14.00">avatar_file_name :varchar</text>
<text text-anchor="start" x="538.253" y="-444.3" font-family="Times,serif" font-size="14.00">avatar_content_type :varchar</text>
<text text-anchor="start" x="538.253" y="-429.3" font-family="Times,serif" font-size="14.00">avatar_file_size :integer</text>
<text text-anchor="start" x="538.253" y="-414.3" font-family="Times,serif" font-size="14.00">avatar_updated_at :datetime</text>
</g>
<!-- ApplicationRecord&#45;&gt;User -->
<g id="edge6" class="edge"><title>ApplicationRecord&#45;&gt;User</title>
<path fill="none" stroke="black" d="M395.54,-877.815C426.503,-855.534 481.783,-813.026 520.253,-768 523.583,-764.102 526.879,-760.092 530.132,-755.993"/>
</g>
<!-- Article -->
<g id="node7" class="node"><title>Article</title>
<path fill="none" stroke="black" d="M138.753,-158.5C138.753,-158.5 289.753,-158.5 289.753,-158.5 295.753,-158.5 301.753,-164.5 301.753,-170.5 301.753,-170.5 301.753,-357.5 301.753,-357.5 301.753,-363.5 295.753,-369.5 289.753,-369.5 289.753,-369.5 138.753,-369.5 138.753,-369.5 132.753,-369.5 126.753,-363.5 126.753,-357.5 126.753,-357.5 126.753,-170.5 126.753,-170.5 126.753,-164.5 132.753,-158.5 138.753,-158.5"/>
<text text-anchor="middle" x="214.253" y="-354.3" font-family="Times,serif" font-size="14.00">Article</text>
<polyline fill="none" stroke="black" points="126.753,-346.5 301.753,-346.5 "/>
<text text-anchor="start" x="134.753" y="-331.3" font-family="Times,serif" font-size="14.00">id :INTEGER</text>
<text text-anchor="start" x="134.753" y="-316.3" font-family="Times,serif" font-size="14.00">title :varchar</text>
<text text-anchor="start" x="134.753" y="-301.3" font-family="Times,serif" font-size="14.00">body :text</text>
<text text-anchor="start" x="134.753" y="-286.3" font-family="Times,serif" font-size="14.00">author_name :varchar</text>
<text text-anchor="start" x="134.753" y="-271.3" font-family="Times,serif" font-size="14.00">author_id :varchar</text>
<text text-anchor="start" x="134.753" y="-256.3" font-family="Times,serif" font-size="14.00">created_at :datetime</text>
<text text-anchor="start" x="134.753" y="-241.3" font-family="Times,serif" font-size="14.00">updated_at :datetime</text>
<text text-anchor="start" x="134.753" y="-226.3" font-family="Times,serif" font-size="14.00">image_file_name :varchar</text>
<text text-anchor="start" x="134.753" y="-211.3" font-family="Times,serif" font-size="14.00">image_content_type :varchar</text>
<text text-anchor="start" x="134.753" y="-196.3" font-family="Times,serif" font-size="14.00">image_file_size :integer</text>
<text text-anchor="start" x="134.753" y="-181.3" font-family="Times,serif" font-size="14.00">image_updated_at :datetime</text>
<text text-anchor="start" x="134.753" y="-166.3" font-family="Times,serif" font-size="14.00">autor :String</text>
</g>
<!-- ApplicationRecord&#45;&gt;Article -->
<g id="edge9" class="edge"><title>ApplicationRecord&#45;&gt;Article</title>
<path fill="none" stroke="black" d="M358.633,-876.956C342.671,-857.691 314.759,-826.136 286.253,-804 260.476,-783.984 238.952,-796.04 222.253,-768 183.68,-703.233 193.49,-497.098 203.971,-369.697"/>
</g>
<!-- Categoria -->
<g id="node11" class="node"><title>Categoria</title>
<path fill="none" stroke="black" d="M243.753,-549C243.753,-549 350.753,-549 350.753,-549 356.753,-549 362.753,-555 362.753,-561 362.753,-561 362.753,-613 362.753,-613 362.753,-619 356.753,-625 350.753,-625 350.753,-625 243.753,-625 243.753,-625 237.753,-625 231.753,-619 231.753,-613 231.753,-613 231.753,-561 231.753,-561 231.753,-555 237.753,-549 243.753,-549"/>
<text text-anchor="middle" x="297.253" y="-609.8" font-family="Times,serif" font-size="14.00">Categoria</text>
<polyline fill="none" stroke="black" points="231.753,-602 362.753,-602 "/>
<text text-anchor="start" x="239.753" y="-586.8" font-family="Times,serif" font-size="14.00">id :INTEGER</text>
<text text-anchor="start" x="239.753" y="-571.8" font-family="Times,serif" font-size="14.00">created_at :datetime</text>
<text text-anchor="start" x="239.753" y="-556.8" font-family="Times,serif" font-size="14.00">updated_at :datetime</text>
</g>
<!-- ApplicationRecord&#45;&gt;Categoria -->
<g id="edge12" class="edge"><title>ApplicationRecord&#45;&gt;Categoria</title>
<path fill="none" stroke="black" d="M368.006,-876.671C356.168,-828.375 322.609,-691.455 306.331,-625.039"/>
</g>
<!-- Sobre -->
<g id="node12" class="node"><title>Sobre</title>
<path fill="none" stroke="black" d="M392.753,-549C392.753,-549 499.753,-549 499.753,-549 505.753,-549 511.753,-555 511.753,-561 511.753,-561 511.753,-613 511.753,-613 511.753,-619 505.753,-625 499.753,-625 499.753,-625 392.753,-625 392.753,-625 386.753,-625 380.753,-619 380.753,-613 380.753,-613 380.753,-561 380.753,-561 380.753,-555 386.753,-549 392.753,-549"/>
<text text-anchor="middle" x="446.253" y="-609.8" font-family="Times,serif" font-size="14.00">Sobre</text>
<polyline fill="none" stroke="black" points="380.753,-602 511.753,-602 "/>
<text text-anchor="start" x="388.753" y="-586.8" font-family="Times,serif" font-size="14.00">id :INTEGER</text>
<text text-anchor="start" x="388.753" y="-571.8" font-family="Times,serif" font-size="14.00">created_at :datetime</text>
<text text-anchor="start" x="388.753" y="-556.8" font-family="Times,serif" font-size="14.00">updated_at :datetime</text>
</g>
<!-- ApplicationRecord&#45;&gt;Sobre -->
<g id="edge13" class="edge"><title>ApplicationRecord&#45;&gt;Sobre</title>
<path fill="none" stroke="black" d="M376.443,-876.671C388.123,-828.375 421.234,-691.455 437.296,-625.039"/>
</g>
<!-- Tag -->
<g id="node4" class="node"><title>Tag</title>
<path fill="none" stroke="black" d="M55.7527,-541.5C55.7527,-541.5 162.753,-541.5 162.753,-541.5 168.753,-541.5 174.753,-547.5 174.753,-553.5 174.753,-553.5 174.753,-620.5 174.753,-620.5 174.753,-626.5 168.753,-632.5 162.753,-632.5 162.753,-632.5 55.7527,-632.5 55.7527,-632.5 49.7527,-632.5 43.7527,-626.5 43.7527,-620.5 43.7527,-620.5 43.7527,-553.5 43.7527,-553.5 43.7527,-547.5 49.7527,-541.5 55.7527,-541.5"/>
<text text-anchor="middle" x="109.253" y="-617.3" font-family="Times,serif" font-size="14.00">Tag</text>
<polyline fill="none" stroke="black" points="43.7527,-609.5 174.753,-609.5 "/>
<text text-anchor="start" x="51.7527" y="-594.3" font-family="Times,serif" font-size="14.00">id :INTEGER</text>
<text text-anchor="start" x="51.7527" y="-579.3" font-family="Times,serif" font-size="14.00">name :varchar</text>
<text text-anchor="start" x="51.7527" y="-564.3" font-family="Times,serif" font-size="14.00">created_at :datetime</text>
<text text-anchor="start" x="51.7527" y="-549.3" font-family="Times,serif" font-size="14.00">updated_at :datetime</text>
</g>
<!-- Tag&#45;&gt;Tagging -->
<g id="edge2" class="edge"><title>Tag&#45;&gt;Tagging</title>
<path fill="none" stroke="#524d06" d="M108.143,-533.117C106.097,-435.692 101.744,-228.33 99.5601,-124.277"/>
<ellipse fill="none" stroke="#524d06" cx="108.231" cy="-537.325" rx="4" ry="4"/>
<polygon fill="#524d06" stroke="#524d06" points="99.5592,-124.232 103.848,-114.14 99.4542,-119.233 99.3492,-114.234 99.3492,-114.234 99.3492,-114.234 99.4542,-119.233 94.8502,-114.329 99.5592,-124.232 99.5592,-124.232"/>
</g>
<!-- Tag&#45;&gt;Article -->
<g id="edge3" class="edge"><title>Tag&#45;&gt;Article</title>
<path fill="none" stroke="#35f7d8" d="M127.019,-531.686C140.628,-490.082 159.885,-431.211 176.845,-379.361"/>
<polygon fill="#35f7d8" stroke="#35f7d8" points="126.962,-531.862 119.576,-539.967 125.407,-536.614 123.853,-541.366 123.853,-541.366 123.853,-541.366 125.407,-536.614 128.13,-542.765 126.962,-531.862 126.962,-531.862"/>
<polygon fill="#35f7d8" stroke="#35f7d8" points="176.874,-379.272 184.26,-371.166 178.429,-374.52 179.983,-369.767 179.983,-369.767 179.983,-369.767 178.429,-374.52 175.706,-368.368 176.874,-379.272 176.874,-379.272"/>
</g>
<!-- User&#45;&gt;Article -->
<g id="edge5" class="edge"><title>User&#45;&gt;Article</title>
<path fill="none" stroke="#46621e" d="M523.919,-409.336C522.706,-408.208 521.484,-407.095 520.253,-406 460.184,-352.565 376.411,-315.864 311.701,-293.331"/>
<ellipse fill="none" stroke="#46621e" cx="527.025" cy="-412.333" rx="4.00002" ry="4.00002"/>
<polygon fill="#46621e" stroke="#46621e" points="311.353,-293.212 303.35,-285.715 306.623,-291.592 301.892,-289.973 301.892,-289.973 301.892,-289.973 306.623,-291.592 300.435,-294.23 311.353,-293.212 311.353,-293.212"/>
</g>
<!-- Article&#45;&gt;Comment -->
<g id="edge7" class="edge"><title>Article&#45;&gt;Comment</title>
<path fill="none" stroke="#b994cd" d="M308.661,-197.565C347.128,-170.904 391.027,-140.477 427.476,-115.214"/>
<ellipse fill="none" stroke="#b994cd" cx="305.337" cy="-199.869" rx="4.00002" ry="4.00002"/>
<polygon fill="#b994cd" stroke="#b994cd" points="427.873,-114.939 438.655,-112.941 431.982,-112.091 436.092,-109.243 436.092,-109.243 436.092,-109.243 431.982,-112.091 433.528,-105.544 427.873,-114.939 427.873,-114.939"/>
</g>
<!-- Article&#45;&gt;Tagging -->
<g id="edge8" class="edge"><title>Article&#45;&gt;Tagging</title>
<path fill="none" stroke="#0d1f1e" d="M149.728,-151.195C144.147,-141.524 138.648,-131.995 133.44,-122.971"/>
<ellipse fill="none" stroke="#0d1f1e" cx="151.875" cy="-154.914" rx="4.00002" ry="4.00002"/>
<polygon fill="#0d1f1e" stroke="#0d1f1e" points="133.336,-122.79 132.235,-111.88 130.836,-118.46 128.337,-114.129 128.337,-114.129 128.337,-114.129 130.836,-118.46 124.44,-116.379 133.336,-122.79 133.336,-122.79"/>
</g>
<!-- Ckeditor::AttachmentFile -->
<g id="node8" class="node"><title>Ckeditor::AttachmentFile</title>
<path fill="none" stroke="black" d="M798.253,-496.5C798.253,-496.5 938.253,-496.5 938.253,-496.5 944.253,-496.5 950.253,-502.5 950.253,-508.5 950.253,-508.5 950.253,-665.5 950.253,-665.5 950.253,-671.5 944.253,-677.5 938.253,-677.5 938.253,-677.5 798.253,-677.5 798.253,-677.5 792.253,-677.5 786.253,-671.5 786.253,-665.5 786.253,-665.5 786.253,-508.5 786.253,-508.5 786.253,-502.5 792.253,-496.5 798.253,-496.5"/>
<text text-anchor="middle" x="868.253" y="-662.3" font-family="Times,serif" font-size="14.00">Ckeditor::AttachmentFile</text>
<polyline fill="none" stroke="black" points="786.253,-654.5 950.253,-654.5 "/>
<text text-anchor="start" x="794.253" y="-639.3" font-family="Times,serif" font-size="14.00">id :INTEGER</text>
<text text-anchor="start" x="794.253" y="-624.3" font-family="Times,serif" font-size="14.00">data_file_name :varchar</text>
<text text-anchor="start" x="794.253" y="-609.3" font-family="Times,serif" font-size="14.00">data_content_type :varchar</text>
<text text-anchor="start" x="794.253" y="-594.3" font-family="Times,serif" font-size="14.00">data_file_size :integer</text>
<text text-anchor="start" x="794.253" y="-579.3" font-family="Times,serif" font-size="14.00">data_fingerprint :varchar</text>
<text text-anchor="start" x="794.253" y="-564.3" font-family="Times,serif" font-size="14.00">type :varchar(30)</text>
<text text-anchor="start" x="794.253" y="-549.3" font-family="Times,serif" font-size="14.00">width :integer</text>
<text text-anchor="start" x="794.253" y="-534.3" font-family="Times,serif" font-size="14.00">height :integer</text>
<text text-anchor="start" x="794.253" y="-519.3" font-family="Times,serif" font-size="14.00">created_at :datetime</text>
<text text-anchor="start" x="794.253" y="-504.3" font-family="Times,serif" font-size="14.00">updated_at :datetime</text>
</g>
<!-- Ckeditor::Picture -->
<g id="node9" class="node"><title>Ckeditor::Picture</title>
<path fill="none" stroke="black" d="M980.253,-496.5C980.253,-496.5 1120.25,-496.5 1120.25,-496.5 1126.25,-496.5 1132.25,-502.5 1132.25,-508.5 1132.25,-508.5 1132.25,-665.5 1132.25,-665.5 1132.25,-671.5 1126.25,-677.5 1120.25,-677.5 1120.25,-677.5 980.253,-677.5 980.253,-677.5 974.253,-677.5 968.253,-671.5 968.253,-665.5 968.253,-665.5 968.253,-508.5 968.253,-508.5 968.253,-502.5 974.253,-496.5 980.253,-496.5"/>
<text text-anchor="middle" x="1050.25" y="-662.3" font-family="Times,serif" font-size="14.00">Ckeditor::Picture</text>
<polyline fill="none" stroke="black" points="968.253,-654.5 1132.25,-654.5 "/>
<text text-anchor="start" x="976.253" y="-639.3" font-family="Times,serif" font-size="14.00">id :INTEGER</text>
<text text-anchor="start" x="976.253" y="-624.3" font-family="Times,serif" font-size="14.00">data_file_name :varchar</text>
<text text-anchor="start" x="976.253" y="-609.3" font-family="Times,serif" font-size="14.00">data_content_type :varchar</text>
<text text-anchor="start" x="976.253" y="-594.3" font-family="Times,serif" font-size="14.00">data_file_size :integer</text>
<text text-anchor="start" x="976.253" y="-579.3" font-family="Times,serif" font-size="14.00">data_fingerprint :varchar</text>
<text text-anchor="start" x="976.253" y="-564.3" font-family="Times,serif" font-size="14.00">type :varchar(30)</text>
<text text-anchor="start" x="976.253" y="-549.3" font-family="Times,serif" font-size="14.00">width :integer</text>
<text text-anchor="start" x="976.253" y="-534.3" font-family="Times,serif" font-size="14.00">height :integer</text>
<text text-anchor="start" x="976.253" y="-519.3" font-family="Times,serif" font-size="14.00">created_at :datetime</text>
<text text-anchor="start" x="976.253" y="-504.3" font-family="Times,serif" font-size="14.00">updated_at :datetime</text>
</g>
<!-- Ckeditor::Asset -->
<g id="node10" class="node"><title>Ckeditor::Asset</title>
<path fill="none" stroke="black" d="M889.253,-804.5C889.253,-804.5 1029.25,-804.5 1029.25,-804.5 1035.25,-804.5 1041.25,-810.5 1041.25,-816.5 1041.25,-816.5 1041.25,-973.5 1041.25,-973.5 1041.25,-979.5 1035.25,-985.5 1029.25,-985.5 1029.25,-985.5 889.253,-985.5 889.253,-985.5 883.253,-985.5 877.253,-979.5 877.253,-973.5 877.253,-973.5 877.253,-816.5 877.253,-816.5 877.253,-810.5 883.253,-804.5 889.253,-804.5"/>
<text text-anchor="middle" x="959.253" y="-970.3" font-family="Times,serif" font-size="14.00">Ckeditor::Asset</text>
<polyline fill="none" stroke="black" points="877.253,-962.5 1041.25,-962.5 "/>
<text text-anchor="start" x="885.253" y="-947.3" font-family="Times,serif" font-size="14.00">id :INTEGER</text>
<text text-anchor="start" x="885.253" y="-932.3" font-family="Times,serif" font-size="14.00">data_file_name :varchar</text>
<text text-anchor="start" x="885.253" y="-917.3" font-family="Times,serif" font-size="14.00">data_content_type :varchar</text>
<text text-anchor="start" x="885.253" y="-902.3" font-family="Times,serif" font-size="14.00">data_file_size :integer</text>
<text text-anchor="start" x="885.253" y="-887.3" font-family="Times,serif" font-size="14.00">data_fingerprint :varchar</text>
<text text-anchor="start" x="885.253" y="-872.3" font-family="Times,serif" font-size="14.00">type :varchar(30)</text>
<text text-anchor="start" x="885.253" y="-857.3" font-family="Times,serif" font-size="14.00">width :integer</text>
<text text-anchor="start" x="885.253" y="-842.3" font-family="Times,serif" font-size="14.00">height :integer</text>
<text text-anchor="start" x="885.253" y="-827.3" font-family="Times,serif" font-size="14.00">created_at :datetime</text>
<text text-anchor="start" x="885.253" y="-812.3" font-family="Times,serif" font-size="14.00">updated_at :datetime</text>
</g>
<!-- Ckeditor::Asset&#45;&gt;Ckeditor::AttachmentFile -->
<g id="edge10" class="edge"><title>Ckeditor::Asset&#45;&gt;Ckeditor::AttachmentFile</title>
<path fill="none" stroke="black" d="M932.565,-804.257C920.712,-764.402 906.793,-717.596 894.94,-677.741"/>
</g>
<!-- Ckeditor::Asset&#45;&gt;Ckeditor::Picture -->
<g id="edge11" class="edge"><title>Ckeditor::Asset&#45;&gt;Ckeditor::Picture</title>
<path fill="none" stroke="black" d="M985.941,-804.257C997.793,-764.402 1011.71,-717.596 1023.57,-677.741"/>
</g>
<!-- MaterialIcon -->
<g id="node13" class="node"><title>MaterialIcon</title>
<polygon fill="none" stroke="black" points="1059.75,-872 1059.75,-918 1146.75,-918 1146.75,-872 1059.75,-872"/>
<text text-anchor="middle" x="1103.25" y="-902.8" font-family="Times,serif" font-size="14.00">MaterialIcon</text>
<polyline fill="none" stroke="black" points="1059.75,-895 1146.75,-895 "/>
<text text-anchor="middle" x="1103.25" y="-879.8" font-family="Times,serif" font-size="14.00"> </text>
</g>
</g>
</svg>
