<?xml version="1.0" encoding="UTF-8" standalone="no"?>
<!DOCTYPE svg PUBLIC "-//W3C//DTD SVG 1.1//EN"
 "http://www.w3.org/Graphics/SVG/1.1/DTD/svg11.dtd">
<!-- Generated by graphviz version 2.38.0 (20140413.2041)
 -->
<!-- Title: models_diagram Pages: 1 -->
<svg width="891pt" height="302pt"
 viewBox="0.00 0.00 890.50 302.00" xmlns="http://www.w3.org/2000/svg" xmlns:xlink="http://www.w3.org/1999/xlink">
<g id="graph0" class="graph" transform="scale(1 1) rotate(0) translate(4 298)">
<title>models_diagram</title>
<polygon fill="none" stroke="none" points="-4,4 -4,-298 886.5,-298 886.5,4 -4,4"/>
<!-- _diagram_info -->
<g id="node1" class="node"><title>_diagram_info</title>
<text text-anchor="start" x="8" y="-279.6" font-family="Times,serif" font-size="13.00">Models diagram</text>
<text text-anchor="start" x="8" y="-265.6" font-family="Times,serif" font-size="13.00">Date: Dec 10 2017 &#45; 01:30</text>
<text text-anchor="start" x="8" y="-251.6" font-family="Times,serif" font-size="13.00">Migration version: 20171209111059</text>
<text text-anchor="start" x="8" y="-237.6" font-family="Times,serif" font-size="13.00">Generated by RailRoady 1.5.3</text>
<text text-anchor="start" x="8" y="-223.6" font-family="Times,serif" font-size="13.00">http://railroady.prestonlee.com</text>
</g>
<!-- Comment -->
<g id="node2" class="node"><title>Comment</title>
<ellipse fill="none" stroke="black" cx="360" cy="-18" rx="46.2923" ry="18"/>
<text text-anchor="middle" x="360" y="-14.3" font-family="Times,serif" font-size="14.00">Comment</text>
</g>
<!-- ApplicationRecord -->
<g id="node3" class="node"><title>ApplicationRecord</title>
<ellipse fill="none" stroke="black" cx="309" cy="-255" rx="77.1866" ry="18"/>
<text text-anchor="middle" x="309" y="-251.3" font-family="Times,serif" font-size="14.00">ApplicationRecord</text>
</g>
<!-- ApplicationRecord&#45;&gt;Comment -->
<g id="edge1" class="edge"><title>ApplicationRecord&#45;&gt;Comment</title>
<path fill="none" stroke="black" d="M367.572,-243.15C403.212,-233.203 445.984,-214.53 468,-180 502.832,-125.369 424.213,-61.8629 383.068,-33.7195"/>
</g>
<!-- Tagging -->
<g id="node5" class="node"><title>Tagging</title>
<ellipse fill="none" stroke="black" cx="130" cy="-18" rx="40.0939" ry="18"/>
<text text-anchor="middle" x="130" y="-14.3" font-family="Times,serif" font-size="14.00">Tagging</text>
</g>
<!-- ApplicationRecord&#45;&gt;Tagging -->
<g id="edge4" class="edge"><title>ApplicationRecord&#45;&gt;Tagging</title>
<path fill="none" stroke="black" d="M276.755,-238.508C260.791,-231.16 241.105,-222.573 223,-216 168.657,-196.272 132.766,-226.192 98,-180 64.9248,-136.055 99.9088,-66.8624 119.131,-35.4682"/>
</g>
<!-- User -->
<g id="node6" class="node"><title>User</title>
<ellipse fill="none" stroke="black" cx="432" cy="-162" rx="27.0966" ry="18"/>
<text text-anchor="middle" x="432" y="-158.3" font-family="Times,serif" font-size="14.00">User</text>
</g>
<!-- ApplicationRecord&#45;&gt;User -->
<g id="edge6" class="edge"><title>ApplicationRecord&#45;&gt;User</title>
<path fill="none" stroke="black" d="M330.99,-237.731C354.899,-220.043 392.622,-192.133 414.571,-175.895"/>
</g>
<!-- Article -->
<g id="node7" class="node"><title>Article</title>
<ellipse fill="none" stroke="black" cx="193" cy="-90" rx="35.194" ry="18"/>
<text text-anchor="middle" x="193" y="-86.3" font-family="Times,serif" font-size="14.00">Article</text>
</g>
<!-- ApplicationRecord&#45;&gt;Article -->
<g id="edge9" class="edge"><title>ApplicationRecord&#45;&gt;Article</title>
<path fill="none" stroke="black" d="M276.393,-238.675C253.509,-226.166 224.206,-206.271 208,-180 194.344,-157.862 192.091,-127.012 192.195,-108.057"/>
</g>
<!-- Categoria -->
<g id="node11" class="node"><title>Categoria</title>
<ellipse fill="none" stroke="black" cx="262" cy="-162" rx="44.6926" ry="18"/>
<text text-anchor="middle" x="262" y="-158.3" font-family="Times,serif" font-size="14.00">Categoria</text>
</g>
<!-- ApplicationRecord&#45;&gt;Categoria -->
<g id="edge12" class="edge"><title>ApplicationRecord&#45;&gt;Categoria</title>
<path fill="none" stroke="black" d="M300.16,-236.884C291.704,-220.511 279.031,-195.975 270.642,-179.732"/>
</g>
<!-- Sobre -->
<g id="node12" class="node"><title>Sobre</title>
<ellipse fill="none" stroke="black" cx="356" cy="-162" rx="31.3957" ry="18"/>
<text text-anchor="middle" x="356" y="-158.3" font-family="Times,serif" font-size="14.00">Sobre</text>
</g>
<!-- ApplicationRecord&#45;&gt;Sobre -->
<g id="edge13" class="edge"><title>ApplicationRecord&#45;&gt;Sobre</title>
<path fill="none" stroke="black" d="M317.84,-236.884C326.35,-220.408 339.128,-195.666 347.516,-179.427"/>
</g>
<!-- Tag -->
<g id="node4" class="node"><title>Tag</title>
<ellipse fill="none" stroke="black" cx="134" cy="-162" rx="27" ry="18"/>
<text text-anchor="middle" x="134" y="-158.3" font-family="Times,serif" font-size="14.00">Tag</text>
</g>
<!-- Tag&#45;&gt;Tagging -->
<g id="edge2" class="edge"><title>Tag&#45;&gt;Tagging</title>
<path fill="none" stroke="#eb8e5d" d="M133.283,-135.558C132.576,-110.444 131.498,-72.164 130.772,-46.3932"/>
<ellipse fill="none" stroke="#eb8e5d" cx="133.405" cy="-139.873" rx="4" ry="4"/>
<polygon fill="#eb8e5d" stroke="#eb8e5d" points="130.766,-46.1853 134.982,-36.0625 130.625,-41.1873 130.484,-36.1893 130.484,-36.1893 130.484,-36.1893 130.625,-41.1873 125.986,-36.316 130.766,-46.1853 130.766,-46.1853"/>
</g>
<!-- Tag&#45;&gt;Article -->
<g id="edge3" class="edge"><title>Tag&#45;&gt;Article</title>
<path fill="none" stroke="#48ea12" d="M153.3,-138.101C159.565,-130.669 166.529,-122.406 172.854,-114.903"/>
<polygon fill="#48ea12" stroke="#48ea12" points="153.247,-138.165 143.361,-142.911 150.024,-141.988 146.802,-145.811 146.802,-145.811 146.802,-145.811 150.024,-141.988 150.243,-148.711 153.247,-138.165 153.247,-138.165"/>
<polygon fill="#48ea12" stroke="#48ea12" points="172.957,-114.78 182.843,-110.034 176.179,-110.957 179.402,-107.134 179.402,-107.134 179.402,-107.134 176.179,-110.957 175.961,-104.233 172.957,-114.78 172.957,-114.78"/>
</g>
<!-- User&#45;&gt;Article -->
<g id="edge5" class="edge"><title>User&#45;&gt;Article</title>
<path fill="none" stroke="#1deed8" d="M403.515,-146.963C400.998,-145.901 398.469,-144.896 396,-144 341.712,-124.289 276.796,-108.663 235.244,-99.6228"/>
<ellipse fill="none" stroke="#1deed8" cx="407.301" cy="-148.642" rx="4.00002" ry="4.00002"/>
<polygon fill="#1deed8" stroke="#1deed8" points="234.982,-99.5666 226.149,-93.0682 230.093,-98.5173 225.205,-97.468 225.205,-97.468 225.205,-97.468 230.093,-98.5173 224.26,-101.868 234.982,-99.5666 234.982,-99.5666"/>
</g>
<!-- Article&#45;&gt;Comment -->
<g id="edge7" class="edge"><title>Article&#45;&gt;Comment</title>
<path fill="none" stroke="#cdee5b" d="M227.2,-74.6648C254.27,-63.3178 292.111,-47.4563 320.477,-35.5664"/>
<ellipse fill="none" stroke="#cdee5b" cx="223.151" cy="-76.362" rx="4.00001" ry="4.00001"/>
<polygon fill="#cdee5b" stroke="#cdee5b" points="320.482,-35.5645 331.444,-35.8488 325.093,-33.6316 329.705,-31.6987 329.705,-31.6987 329.705,-31.6987 325.093,-33.6316 327.965,-27.5485 320.482,-35.5645 320.482,-35.5645"/>
</g>
<!-- Article&#45;&gt;Tagging -->
<g id="edge8" class="edge"><title>Article&#45;&gt;Tagging</title>
<path fill="none" stroke="#d3bc45" d="M173.422,-67.2468C166.379,-59.421 158.403,-50.5587 151.226,-42.5843"/>
<ellipse fill="none" stroke="#d3bc45" cx="176.342" cy="-70.4915" rx="4.00002" ry="4.00002"/>
<polygon fill="#d3bc45" stroke="#d3bc45" points="151.069,-42.4101 147.724,-31.9668 147.724,-38.6936 144.379,-34.9772 144.379,-34.9772 144.379,-34.9772 147.724,-38.6936 141.035,-37.9875 151.069,-42.4101 151.069,-42.4101"/>
</g>
<!-- Ckeditor::AttachmentFile -->
<g id="node8" class="node"><title>Ckeditor::AttachmentFile</title>
<ellipse fill="none" stroke="black" cx="616" cy="-162" rx="101.282" ry="18"/>
<text text-anchor="middle" x="616" y="-158.3" font-family="Times,serif" font-size="14.00">Ckeditor::AttachmentFile</text>
</g>
<!-- Ckeditor::Picture -->
<g id="node9" class="node"><title>Ckeditor::Picture</title>
<ellipse fill="none" stroke="black" cx="807" cy="-162" rx="71.4873" ry="18"/>
<text text-anchor="middle" x="807" y="-158.3" font-family="Times,serif" font-size="14.00">Ckeditor::Picture</text>
</g>
<!-- Ckeditor::Asset -->
<g id="node10" class="node"><title>Ckeditor::Asset</title>
<ellipse fill="none" stroke="black" cx="712" cy="-255" rx="65.7887" ry="18"/>
<text text-anchor="middle" x="712" y="-251.3" font-family="Times,serif" font-size="14.00">Ckeditor::Asset</text>
</g>
<!-- Ckeditor::Asset&#45;&gt;Ckeditor::AttachmentFile -->
<g id="edge10" class="edge"><title>Ckeditor::Asset&#45;&gt;Ckeditor::AttachmentFile</title>
<path fill="none" stroke="black" d="M694.392,-237.309C677.179,-220.992 651.107,-196.279 633.821,-179.893"/>
</g>
<!-- Ckeditor::Asset&#45;&gt;Ckeditor::Picture -->
<g id="edge11" class="edge"><title>Ckeditor::Asset&#45;&gt;Ckeditor::Picture</title>
<path fill="none" stroke="black" d="M729.424,-237.309C746.566,-220.89 772.583,-195.968 789.686,-179.585"/>
</g>
<!-- MaterialIcon -->
<g id="node13" class="node"><title>MaterialIcon</title>
<polygon fill="none" stroke="black" points="882.5,-273 795.5,-273 795.5,-237 882.5,-237 882.5,-273"/>
<text text-anchor="middle" x="839" y="-251.3" font-family="Times,serif" font-size="14.00">MaterialIcon</text>
</g>
</g>
</svg>
